<?xml version="1.0" standalone="no"?>
<!DOCTYPE svg PUBLIC "-//W3C//DTD SVG 20010904//EN"
 "http://www.w3.org/TR/2001/REC-SVG-20010904/DTD/svg10.dtd">
<svg version="1.0" xmlns="http://www.w3.org/2000/svg"
 width="513.000000pt" height="513.000000pt" viewBox="0 0 513.000000 513.000000"
 preserveAspectRatio="xMidYMid meet">
<metadata>
Created by potrace 1.14, written by Peter Selinger 2001-2017
</metadata>
<g transform="translate(0.000000,513.000000) scale(0.100000,-0.100000)"
fill="#000000" stroke="none">
<path d="M10 4758 l0 -373 818 -2185 817 -2185 1738 -3 1737 -2 0 2560 0 2560
-2555 0 -2555 0 0 -372z m3055 -782 c98 -34 185 -85 246 -146 83 -83 87 -192
10 -282 -20 -23 -253 -281 -519 -573 -326 -357 -496 -537 -524 -552 -28 -16
-58 -23 -93 -23 -35 0 -65 7 -93 23 -63 34 -427 371 -447 414 -48 100 -27 167
89 292 44 48 209 227 365 399 334 366 393 414 575 463 107 29 282 22 391 -15z
m-20 -1255 c22 -10 126 -97 231 -193 208 -191 224 -214 224 -310 0 -31 -8 -68
-20 -92 -23 -46 -699 -792 -775 -855 -61 -50 -170 -104 -251 -125 -79 -20
-239 -20 -323 -1 -135 32 -304 145 -342 230 -26 57 -25 141 4 193 12 22 209
245 437 494 228 249 452 493 497 543 46 50 102 100 125 112 54 28 137 30 193
4z"/>
</g>
</svg>
